<svg width="24" height="24" viewBox="0 0 24 24" fill="none" xmlns="http://www.w3.org/2000/svg">
<g clip-path="url(#clip0_11_94)">
<path d="M6.76762 18.6552C10.5057 18.6552 13.5362 15.5984 13.5362 11.8277C13.5362 8.05698 10.506 5 6.76762 5C3.02928 5 -0.0012207 8.05767 -0.0012207 11.8277C-0.0012207 15.5977 3.02951 18.6552 6.76762 18.6552Z" fill="black"/>
<path d="M20.9616 11.8277C20.9616 15.377 19.4463 18.2555 17.5772 18.2555C15.708 18.2555 14.1927 15.377 14.1927 11.8277C14.1927 8.2784 15.7078 5.39996 17.5769 5.39996C19.4461 5.39996 20.9616 8.27748 20.9616 11.8277Z" fill="black"/>
<path d="M23.9988 11.8277C23.9988 15.007 23.4659 17.586 22.8085 17.586C22.151 17.586 21.6184 15.0077 21.6184 11.8277C21.6184 8.6477 22.1512 6.06946 22.8085 6.06946C23.4657 6.06946 23.9988 8.64747 23.9988 11.8277Z" fill="black"/>
</g>
<defs>
<clipPath id="clip0_11_94">
<rect width="24" height="24" fill="white" transform="translate(-0.0012207)"/>
</clipPath>
</defs>
</svg>
