<svg width="24" height="24" viewBox="0 0 24 24" fill="none" xmlns="http://www.w3.org/2000/svg">
<g clip-path="url(#clip0_11_100)">
<path d="M11.9988 24C18.6262 24 23.9988 18.6274 23.9988 12C23.9988 5.37258 18.6262 0 11.9988 0C5.37136 0 -0.0012207 5.37258 -0.0012207 12C-0.0012207 18.6274 5.37136 24 11.9988 24Z" fill="white"/>
<path d="M11.9988 0C5.37162 0 -0.0012207 5.37284 -0.0012207 12C-0.0012207 17.0864 3.15927 21.4321 7.62347 23.1802C7.51483 22.2321 7.42594 20.7704 7.66298 19.7333C7.88026 18.7951 9.06545 13.7679 9.06545 13.7679C9.06545 13.7679 8.70989 13.0469 8.70989 11.9901C8.70989 10.321 9.67779 9.07654 10.8827 9.07654C11.9099 9.07654 12.4037 9.84691 12.4037 10.7654C12.4037 11.7926 11.7519 13.3333 11.4062 14.7654C11.1198 15.9605 12.0087 16.9383 13.184 16.9383C15.3173 16.9383 16.9568 14.6864 16.9568 11.4469C16.9568 8.57284 14.8926 6.5679 11.9395 6.5679C8.52224 6.5679 6.5173 9.12593 6.5173 11.7728C6.5173 12.8 6.91236 13.9062 7.40619 14.5086C7.50495 14.6272 7.51483 14.7358 7.4852 14.8543C7.39631 15.2296 7.1889 16.0494 7.1494 16.2173C7.10001 16.4346 6.97162 16.484 6.74446 16.3753C5.24322 15.6741 4.30495 13.4914 4.30495 11.7235C4.30495 7.94074 7.05063 4.4642 12.2358 4.4642C16.3938 4.4642 19.6333 7.42716 19.6333 11.3975C19.6333 15.5358 17.0259 18.8642 13.4111 18.8642C12.1963 18.8642 11.0506 18.2321 10.6654 17.4815C10.6654 17.4815 10.063 19.7728 9.91483 20.3358C9.64816 21.3827 8.9173 22.6864 8.42347 23.4864C9.5494 23.8321 10.7346 24.0198 11.979 24.0198C18.6062 24.0198 23.979 18.6469 23.979 12.0198C23.9988 5.37284 18.6259 0 11.9988 0Z" fill="#E60019"/>
</g>
<defs>
<clipPath id="clip0_11_100">
<rect width="24" height="24" fill="white" transform="translate(-0.0012207)"/>
</clipPath>
</defs>
</svg>
